<mxfile host="app.diagrams.net" agent="Mozilla/5.0 (Macintosh; Intel Mac OS X 10_15_7) AppleWebKit/605.1.15 (KHTML, like Gecko) Version/17.2.1 Safari/605.1.15" version="24.7.16">
  <diagram name="Page-1" id="XP_l0BIBv9DtcvsjhYkT">
    <mxGraphModel dx="900" dy="575" grid="1" gridSize="10" guides="1" tooltips="1" connect="1" arrows="1" fold="1" page="1" pageScale="1" pageWidth="827" pageHeight="1169" math="0" shadow="0">
      <root>
        <mxCell id="0" />
        <mxCell id="1" parent="0" />
        <mxCell id="yEfi9qdWkgKZeGp1_gkt-3" value="" style="ellipse;whiteSpace=wrap;html=1;fillColor=none;" vertex="1" parent="1">
          <mxGeometry x="170" y="140" width="420" height="180" as="geometry" />
        </mxCell>
        <mxCell id="yEfi9qdWkgKZeGp1_gkt-2" value="&lt;font size=&quot;1&quot; face=&quot;Courier New&quot;&gt;&lt;b style=&quot;font-size: 16px;&quot;&gt;estree-sentry&lt;/b&gt;&lt;/font&gt;" style="ellipse;shape=cloud;whiteSpace=wrap;html=1;fillColor=none;" vertex="1" parent="1">
          <mxGeometry x="160" y="160" width="220" height="110" as="geometry" />
        </mxCell>
        <mxCell id="yEfi9qdWkgKZeGp1_gkt-6" value="non-computed&lt;div&gt;MemberExpression&lt;div&gt;with computed key&lt;/div&gt;&lt;/div&gt;" style="text;html=1;align=center;verticalAlign=middle;whiteSpace=wrap;rounded=0;" vertex="1" parent="1">
          <mxGeometry x="414" y="170" width="116" height="40" as="geometry" />
        </mxCell>
        <mxCell id="yEfi9qdWkgKZeGp1_gkt-7" value="&lt;font size=&quot;1&quot; face=&quot;Courier New&quot;&gt;&lt;b style=&quot;font-size: 16px;&quot;&gt;estree&lt;/b&gt;&lt;/font&gt;" style="text;html=1;align=center;verticalAlign=middle;whiteSpace=wrap;rounded=0;" vertex="1" parent="1">
          <mxGeometry x="322" y="110" width="116" height="40" as="geometry" />
        </mxCell>
        <mxCell id="yEfi9qdWkgKZeGp1_gkt-8" value="runaway&lt;div&gt;optional&lt;/div&gt;&lt;div&gt;expression&lt;/div&gt;" style="text;html=1;align=center;verticalAlign=middle;whiteSpace=wrap;rounded=0;" vertex="1" parent="1">
          <mxGeometry x="430" y="240" width="116" height="40" as="geometry" />
        </mxCell>
        <mxCell id="yEfi9qdWkgKZeGp1_gkt-10" value="" style="curved=1;endArrow=classic;html=1;rounded=0;" edge="1" parent="1">
          <mxGeometry width="50" height="50" relative="1" as="geometry">
            <mxPoint x="120" y="255" as="sourcePoint" />
            <mxPoint x="170" y="205" as="targetPoint" />
            <Array as="points">
              <mxPoint x="170" y="255" />
              <mxPoint x="120" y="205" />
            </Array>
          </mxGeometry>
        </mxCell>
        <mxCell id="yEfi9qdWkgKZeGp1_gkt-11" value="&lt;font face=&quot;Comic Sans MS&quot;&gt;CallExpression&lt;/font&gt;&lt;div&gt;&lt;font face=&quot;Comic Sans MS&quot;&gt;in left-hand side&lt;/font&gt;&lt;/div&gt;" style="text;html=1;align=center;verticalAlign=middle;whiteSpace=wrap;rounded=0;" vertex="1" parent="1">
          <mxGeometry x="20" y="235" width="116" height="40" as="geometry" />
        </mxCell>
        <mxCell id="yEfi9qdWkgKZeGp1_gkt-12" value="&lt;font face=&quot;Comic Sans MS&quot;&gt;It&#39;s simple and beautiful :)&lt;/font&gt;&lt;div style=&quot;text-align: left;&quot;&gt;&lt;font face=&quot;Comic Sans MS&quot;&gt;easy to produce ;)&lt;/font&gt;&lt;/div&gt;" style="text;html=1;align=center;verticalAlign=middle;whiteSpace=wrap;rounded=0;" vertex="1" parent="1">
          <mxGeometry x="510" y="110" width="168" height="40" as="geometry" />
        </mxCell>
        <mxCell id="yEfi9qdWkgKZeGp1_gkt-13" value="" style="curved=1;endArrow=classic;html=1;rounded=0;exitX=0;exitY=0.5;exitDx=0;exitDy=0;entryX=1;entryY=0.75;entryDx=0;entryDy=0;" edge="1" parent="1" source="yEfi9qdWkgKZeGp1_gkt-12" target="yEfi9qdWkgKZeGp1_gkt-7">
          <mxGeometry width="50" height="50" relative="1" as="geometry">
            <mxPoint x="600" y="140" as="sourcePoint" />
            <mxPoint x="410" y="138" as="targetPoint" />
            <Array as="points">
              <mxPoint x="480" y="140" />
              <mxPoint x="450" y="100" />
            </Array>
          </mxGeometry>
        </mxCell>
        <mxCell id="yEfi9qdWkgKZeGp1_gkt-16" value="&lt;font face=&quot;Comic Sans MS&quot;&gt;some estree values are nonsensical :(&lt;/font&gt;" style="text;html=1;align=center;verticalAlign=middle;whiteSpace=wrap;rounded=0;" vertex="1" parent="1">
          <mxGeometry x="537" y="300" width="114" height="40" as="geometry" />
        </mxCell>
        <mxCell id="yEfi9qdWkgKZeGp1_gkt-17" value="&lt;font face=&quot;Comic Sans MS&quot;&gt;It&#39;s complex :(&lt;/font&gt;&lt;div&gt;&lt;span style=&quot;font-family: &amp;quot;Comic Sans MS&amp;quot;;&quot;&gt;harder to produce :(&lt;/span&gt;&lt;/div&gt;" style="text;html=1;align=left;verticalAlign=middle;whiteSpace=wrap;rounded=0;" vertex="1" parent="1">
          <mxGeometry x="205" y="330" width="130" height="40" as="geometry" />
        </mxCell>
        <mxCell id="yEfi9qdWkgKZeGp1_gkt-19" value="" style="curved=1;endArrow=classic;html=1;rounded=0;entryX=0.409;entryY=0.918;entryDx=0;entryDy=0;entryPerimeter=0;" edge="1" parent="1" target="yEfi9qdWkgKZeGp1_gkt-2">
          <mxGeometry width="50" height="50" relative="1" as="geometry">
            <mxPoint x="198" y="341" as="sourcePoint" />
            <mxPoint x="229" y="249" as="targetPoint" />
            <Array as="points">
              <mxPoint x="180" y="310" />
              <mxPoint x="260" y="290" />
            </Array>
          </mxGeometry>
        </mxCell>
        <mxCell id="yEfi9qdWkgKZeGp1_gkt-20" value="module declaration&lt;div&gt;in script programs&lt;/div&gt;" style="text;html=1;align=center;verticalAlign=middle;whiteSpace=wrap;rounded=0;" vertex="1" parent="1">
          <mxGeometry x="322" y="260" width="116" height="40" as="geometry" />
        </mxCell>
        <mxCell id="yEfi9qdWkgKZeGp1_gkt-27" value="" style="curved=1;endArrow=classic;html=1;rounded=0;entryX=0.409;entryY=0.918;entryDx=0;entryDy=0;entryPerimeter=0;exitX=0;exitY=0.75;exitDx=0;exitDy=0;" edge="1" parent="1" source="yEfi9qdWkgKZeGp1_gkt-16">
          <mxGeometry width="50" height="50" relative="1" as="geometry">
            <mxPoint x="540" y="360" as="sourcePoint" />
            <mxPoint x="420" y="300" as="targetPoint" />
            <Array as="points">
              <mxPoint x="480" y="340" />
              <mxPoint x="430" y="329" />
            </Array>
          </mxGeometry>
        </mxCell>
      </root>
    </mxGraphModel>
  </diagram>
</mxfile>
